<svg width="79" height="77" viewBox="0 0 79 77" fill="none" xmlns="http://www.w3.org/2000/svg">
<rect x="0.130859" y="0.0202637" width="78.8711" height="76.1332" fill="url(#paint0_linear_1_233)"/>
<g clip-path="url(#clip0_1_233)">
<path d="M59.4224 36.2903C60.2395 35.5217 60.5279 34.3935 60.1755 33.3448C59.8222 32.2962 58.902 31.5475 57.7716 31.3887L47.7205 29.9789C47.2924 29.9187 46.9225 29.6596 46.7313 29.2849L42.2377 20.4934C41.7332 19.5057 40.7091 18.8918 39.5679 18.8918C38.4274 18.8918 37.4034 19.5057 36.8988 20.4934L32.4044 29.2849C32.2132 29.6596 31.8425 29.9187 31.4144 29.9789L21.3633 31.3895C20.2337 31.5475 19.3136 32.2962 18.9603 33.3448C18.6078 34.3935 18.8963 35.5217 19.7134 36.2903L26.9857 43.1329C27.2958 43.425 27.4379 43.8454 27.3647 44.2562L25.6483 53.9191C25.4554 55.0047 25.9084 56.0807 26.8319 56.729C27.7546 57.3781 28.9557 57.4623 29.9673 56.948L38.9561 52.3858C39.3393 52.1916 39.7965 52.1916 40.1797 52.3858L49.1693 56.948C49.6082 57.1711 50.0836 57.281 50.5566 57.281C51.1709 57.281 51.7826 57.0956 52.3046 56.729C53.2281 56.0807 53.6811 55.0047 53.4883 53.9191L51.771 44.257C51.6979 43.8454 51.84 43.4258 52.15 43.1337L59.4224 36.2903ZM50.1335 44.5282L51.85 54.1903C51.9364 54.6765 51.7411 55.1411 51.3271 55.4315C50.9124 55.7212 50.3962 55.7565 49.9432 55.5286L40.9535 50.9656C40.5205 50.7465 40.0433 50.6358 39.5679 50.6358C39.0924 50.6358 38.6161 50.7465 38.1822 50.9664L29.1943 55.5286C28.7396 55.7565 28.2234 55.7212 27.8094 55.4315C27.3955 55.1411 27.201 54.6773 27.2866 54.1903L29.0031 44.5282C29.1685 43.5959 28.8485 42.6443 28.1469 41.9847L20.8738 35.1413C20.5072 34.7963 20.3825 34.3101 20.5413 33.8407C20.6992 33.3705 21.0957 33.048 21.6019 32.9766L31.6522 31.5668C32.6222 31.4312 33.4609 30.8439 33.894 29.995L38.3884 21.2035C38.6145 20.7606 39.0558 20.4966 39.567 20.4966C40.0791 20.4966 40.5196 20.7606 40.7465 21.2035L45.2409 29.995C45.674 30.8439 46.5119 31.4312 47.4819 31.5668L57.533 32.9766C58.0392 33.048 58.4357 33.3705 58.5937 33.8407C58.7516 34.3101 58.6277 34.7963 58.2612 35.1413L50.9888 41.9839C50.2873 42.6443 49.9673 43.5951 50.1335 44.5282Z" fill="white"/>
</g>
<path d="M21.9777 45.4151L17.7836 47.7525C17.2045 48.0753 16.5027 47.9485 16.2162 47.4693C15.9296 46.9902 16.1667 46.3402 16.7458 46.0175L20.9399 43.68C21.519 43.3573 22.2208 43.4841 22.5073 43.9632C22.7939 44.4423 22.5568 45.0924 21.9777 45.4151Z" fill="white"/>
<path d="M52.3026 25.7641L55.5047 22.2569C55.9468 21.7726 55.9566 21.0836 55.5266 20.7178C55.0966 20.352 54.3896 20.448 53.9475 20.9322L50.7455 24.4394C50.3034 24.9237 50.2936 25.6128 50.7236 25.9786C51.1536 26.3444 51.8605 26.2484 52.3026 25.7641Z" fill="white"/>
<path d="M56.7352 47.0889L60.9293 49.4264C61.5084 49.7491 62.2102 49.6223 62.4967 49.1432C62.7833 48.664 62.5462 48.014 61.9671 47.6913L57.773 45.3539C57.1939 45.0311 56.4921 45.1579 56.2055 45.637C55.919 46.1162 56.1561 46.7662 56.7352 47.0889Z" fill="white"/>
<path d="M26.9669 25.7641L23.7648 22.2569C23.3227 21.7726 23.3129 21.0836 23.7429 20.7178C24.1729 20.352 24.8799 20.448 25.322 20.9322L28.524 24.4394C28.9661 24.9237 28.976 25.6128 28.546 25.9786C28.116 26.3444 27.409 26.2484 26.9669 25.7641Z" fill="white"/>
<defs>
<linearGradient id="paint0_linear_1_233" x1="84.1589" y1="84.0596" x2="-46.5159" y2="64.2527" gradientUnits="userSpaceOnUse">
<stop stop-color="#0B3F37"/>
<stop offset="0.969562" stop-color="#CB8D62"/>
</linearGradient>
<clipPath id="clip0_1_233">
<rect width="41.5111" height="40.0701" fill="white" transform="translate(18.8125 18.0518)"/>
</clipPath>
</defs>
</svg>
